<?xml version="1.0" encoding="UTF-8" standalone="no"?>
<!DOCTYPE svg PUBLIC "-//W3C//DTD SVG 1.1//EN"
 "http://www.w3.org/Graphics/SVG/1.1/DTD/svg11.dtd">
<!-- Generated by graphviz version 2.40.1 (20161225.0304)
 -->
<!-- Title: g Pages: 1 -->
<svg width="728pt" height="221pt"
 viewBox="0.00 0.00 728.00 221.10" xmlns="http://www.w3.org/2000/svg" xmlns:xlink="http://www.w3.org/1999/xlink">
<g id="graph0" class="graph" transform="scale(1 1) rotate(0) translate(4 217.0952)">
<title>g</title>
<polygon fill="#ffffff" stroke="transparent" points="-4,4 -4,-217.0952 724,-217.0952 724,4 -4,4"/>
<g id="clust2" class="cluster">
<title>cluster_N1_N2</title>
<polygon fill="none" stroke="#000000" stroke-dasharray="1,5" points="147,-65 147,-104 302,-104 302,-65 147,-65"/>
</g>
<g id="clust4" class="cluster">
<title>cluster_N3_N4</title>
<polygon fill="none" stroke="#000000" stroke-dasharray="1,5" points="366,-65 366,-104 521,-104 521,-65 366,-65"/>
</g>
<!-- m_k1 -->
<g id="node1" class="node">
<title>m_k1</title>
<ellipse fill="none" stroke="#000000" cx="97" cy="-151.1984" rx="18.399" ry="18.399"/>
<text text-anchor="middle" x="97" y="-147.4984" font-family="Times,serif" font-size="14.00" fill="#000000">A</text>
</g>
<!-- k1_N1 -->
<g id="node2" class="node">
<title>k1_N1</title>
<ellipse fill="none" stroke="#000000" cx="172" cy="-151.1984" rx="18" ry="18"/>
<text text-anchor="middle" x="172" y="-147.4984" font-family="Times,serif" font-size="14.00" fill="#000000">B</text>
</g>
<!-- m_k1&#45;&gt;k1_N1 -->
<g id="edge6" class="edge">
<title>m_k1&#45;&gt;k1_N1</title>
<path fill="none" stroke="#000000" d="M115.5393,-151.1984C124.0489,-151.1984 134.3262,-151.1984 143.7674,-151.1984"/>
<polygon fill="#000000" stroke="#000000" points="143.9328,-154.6985 153.9327,-151.1984 143.9327,-147.6985 143.9328,-154.6985"/>
<text text-anchor="middle" x="134.5992" y="-157.9984" font-family="Times,serif" font-size="14.00" fill="#000000">k_1</text>
</g>
<!-- gnd -->
<g id="node11" class="node">
<title>gnd</title>
<polygon fill="none" stroke="#000000" points="720,-36 0,-36 0,0 720,0 720,-36"/>
<text text-anchor="middle" x="360" y="-14.3" font-family="Times,serif" font-size="14.00" fill="#000000">GND</text>
</g>
<!-- m_k1&#45;&gt;gnd -->
<g id="edge5" class="edge">
<title>m_k1&#45;&gt;gnd</title>
<path fill="none" stroke="#000000" stroke-dasharray="5,2" d="M87.0499,-135.5856C76.397,-116.6828 63.1521,-84.9117 80,-65 88.3363,-55.1478 136.715,-45.4904 190.9775,-37.5175"/>
<polygon fill="#000000" stroke="#000000" points="191.7712,-40.9394 201.1697,-36.0487 190.7727,-34.0109 191.7712,-40.9394"/>
<text text-anchor="middle" x="92" y="-80.8" font-family="Times,serif" font-size="14.00" fill="#000000">J_m</text>
</g>
<!-- N1 -->
<g id="node7" class="node">
<title>N1</title>
<text text-anchor="middle" x="172" y="-80.8" font-family="Times,serif" font-size="14.00" fill="#000000">N1</text>
</g>
<!-- k1_N1&#45;&gt;N1 -->
<g id="edge7" class="edge">
<title>k1_N1&#45;&gt;N1</title>
<path fill="none" stroke="#000000" d="M172,-132.9728C172,-121.2473 172,-106.3573 172,-96.1943"/>
</g>
<!-- l_k2 -->
<g id="node3" class="node">
<title>l_k2</title>
<ellipse fill="none" stroke="#000000" cx="339" cy="-151.1984" rx="18" ry="18"/>
<text text-anchor="middle" x="339" y="-147.4984" font-family="Times,serif" font-size="14.00" fill="#000000">C</text>
</g>
<!-- k2_r -->
<g id="node4" class="node">
<title>k2_r</title>
<ellipse fill="none" stroke="#000000" cx="473" cy="-151.1984" rx="18" ry="18"/>
<text text-anchor="middle" x="473" y="-147.4984" font-family="Times,serif" font-size="14.00" fill="#000000">D</text>
</g>
<!-- l_k2&#45;&gt;k2_r -->
<g id="edge12" class="edge">
<title>l_k2&#45;&gt;k2_r</title>
<path fill="none" stroke="#000000" d="M352.8807,-162.9025C366.7148,-173.7401 389.0758,-189.1004 411.5,-195.3968 420.4858,-197.9199 423.9571,-199.1558 432.5,-195.3968 442.2569,-191.1036 450.6894,-183.1709 457.2954,-175.1982"/>
<polygon fill="#000000" stroke="#000000" points="460.24,-177.1078 463.4975,-167.0261 454.664,-172.876 460.24,-177.1078"/>
<text text-anchor="middle" x="422" y="-191.1968" font-family="Times,serif" font-size="14.00" fill="#000000">k_2</text>
</g>
<!-- N2 -->
<g id="node8" class="node">
<title>N2</title>
<text text-anchor="middle" x="277" y="-80.8" font-family="Times,serif" font-size="14.00" fill="#000000">N2</text>
</g>
<!-- l_k2&#45;&gt;N2 -->
<g id="edge9" class="edge">
<title>l_k2&#45;&gt;N2</title>
<path fill="none" stroke="#000000" d="M326.4534,-137.701C315.1305,-125.5201 298.6435,-107.7837 287.8705,-96.1943"/>
</g>
<!-- l_k2&#45;&gt;gnd -->
<g id="edge11" class="edge">
<title>l_k2&#45;&gt;gnd</title>
<path fill="none" stroke="#000000" stroke-dasharray="5,2" d="M335.636,-133.4205C332.9376,-115.7939 330.4317,-88.1485 336,-65 337.5749,-58.4527 340.2239,-51.7907 343.2003,-45.6195"/>
<polygon fill="#000000" stroke="#000000" points="346.4848,-46.8932 348.0397,-36.4131 340.2887,-43.6361 346.4848,-46.8932"/>
<text text-anchor="middle" x="349" y="-80.8" font-family="Times,serif" font-size="14.00" fill="#000000">J_ell</text>
</g>
<!-- N3 -->
<g id="node9" class="node">
<title>N3</title>
<text text-anchor="middle" x="496" y="-80.8" font-family="Times,serif" font-size="14.00" fill="#000000">N3</text>
</g>
<!-- k2_r&#45;&gt;N3 -->
<g id="edge14" class="edge">
<title>k2_r&#45;&gt;N3</title>
<path fill="none" stroke="#000000" d="M478.9231,-134.0219C483.0226,-122.1337 488.3696,-106.6276 491.9797,-96.1585"/>
</g>
<!-- k2_r&#45;&gt;gnd -->
<g id="edge13" class="edge">
<title>k2_r&#45;&gt;gnd</title>
<path fill="none" stroke="#000000" stroke-dasharray="5,2" d="M488.8039,-142.06C501.2356,-133.8741 517.6443,-120.6103 525,-104 532.0185,-88.1512 535.4436,-78.8339 525,-65 517.123,-54.5659 495.2462,-45.7611 469.8973,-38.6951"/>
<polygon fill="#000000" stroke="#000000" points="470.5976,-35.2598 460.034,-36.0724 468.7987,-42.0247 470.5976,-35.2598"/>
<text text-anchor="middle" x="540" y="-80.8" font-family="Times,serif" font-size="14.00" fill="#000000">J_r</text>
</g>
<!-- N4_k3 -->
<g id="node5" class="node">
<title>N4_k3</title>
<ellipse fill="none" stroke="#000000" cx="413" cy="-151.1984" rx="18" ry="18"/>
<text text-anchor="middle" x="413" y="-147.4984" font-family="Times,serif" font-size="14.00" fill="#000000">E</text>
</g>
<!-- k3_L -->
<g id="node6" class="node">
<title>k3_L</title>
<ellipse fill="none" stroke="#000000" cx="603" cy="-151.1984" rx="18" ry="18"/>
<text text-anchor="middle" x="603" y="-147.4984" font-family="Times,serif" font-size="14.00" fill="#000000">F</text>
</g>
<!-- N4_k3&#45;&gt;k3_L -->
<g id="edge18" class="edge">
<title>N4_k3&#45;&gt;k3_L</title>
<path fill="none" stroke="#000000" d="M426.7445,-162.9999C434.4928,-168.8673 444.6697,-175.344 455,-178.3968 497.0921,-190.8356 547.68,-175.2332 577.4831,-163.038"/>
<polygon fill="#000000" stroke="#000000" points="578.9305,-166.2258 586.7512,-159.0783 576.1802,-159.7887 578.9305,-166.2258"/>
</g>
<!-- N4 -->
<g id="node10" class="node">
<title>N4</title>
<text text-anchor="middle" x="391" y="-80.8" font-family="Times,serif" font-size="14.00" fill="#000000">N4</text>
</g>
<!-- N4_k3&#45;&gt;N4 -->
<g id="edge16" class="edge">
<title>N4_k3&#45;&gt;N4</title>
<path fill="none" stroke="#000000" d="M407.3345,-134.0219C403.4132,-122.1337 398.2986,-106.6276 394.8455,-96.1585"/>
</g>
<!-- k3_L&#45;&gt;gnd -->
<g id="edge19" class="edge">
<title>k3_L&#45;&gt;gnd</title>
<path fill="none" stroke="#000000" stroke-dasharray="5,2" d="M597.0185,-134.0139C589.5154,-114.7726 574.915,-83.8271 553,-65 540.8506,-54.5625 512.1071,-45.5114 480.4117,-38.2148"/>
<polygon fill="#000000" stroke="#000000" points="481.0171,-34.764 470.4955,-36.0071 479.4959,-41.5967 481.0171,-34.764"/>
<text text-anchor="middle" x="592.5" y="-80.8" font-family="Times,serif" font-size="14.00" fill="#000000">J_L</text>
</g>
<!-- k3_L&#45;&gt;gnd -->
<g id="edge20" class="edge">
<title>k3_L&#45;&gt;gnd</title>
<path fill="none" stroke="#000000" d="M609.7817,-134.5175C616.3099,-115.4523 623.0473,-84.3888 607,-65 597.5081,-53.5317 575.5399,-44.838 548.4176,-38.2547"/>
<polygon fill="#000000" stroke="#000000" points="549.15,-34.8318 538.6212,-36.013 547.5885,-41.6555 549.15,-34.8318"/>
<text text-anchor="middle" x="619.5" y="-80.8" font-family="Times,serif" font-size="14.00" fill="#000000">b</text>
</g>
<!-- N1&#45;&gt;N2 -->
<!-- N1&#45;&gt;N2 -->
<!-- N1&#45;&gt;gnd -->
<g id="edge8" class="edge">
<title>N1&#45;&gt;gnd</title>
<path fill="none" stroke="#000000" d="M188.6837,-78.5986C213.2884,-69.8953 260.5688,-53.1711 299.2367,-39.4934"/>
<polygon fill="#000000" stroke="#000000" points="300.6025,-42.7229 308.8629,-36.0884 298.2682,-36.1235 300.6025,-42.7229"/>
</g>
<!-- N2&#45;&gt;gnd -->
<g id="edge10" class="edge">
<title>N2&#45;&gt;gnd</title>
<path fill="none" stroke="#000000" d="M291.4575,-72.9166C301.9193,-64.5345 316.4423,-52.8987 329.4281,-42.4943"/>
<polygon fill="#000000" stroke="#000000" points="331.6493,-45.1995 337.265,-36.2154 327.2724,-39.7367 331.6493,-45.1995"/>
</g>
<!-- N3&#45;&gt;N4 -->
<!-- N3&#45;&gt;gnd -->
<g id="edge15" class="edge">
<title>N3&#45;&gt;gnd</title>
<path fill="none" stroke="#000000" d="M479.3237,-76.3458C461.1935,-67.4806 431.4258,-52.9251 406.1592,-40.5705"/>
<polygon fill="#000000" stroke="#000000" points="407.605,-37.3815 397.084,-36.133 404.5301,-43.67 407.605,-37.3815"/>
</g>
<!-- N4&#45;&gt;gnd -->
<g id="edge17" class="edge">
<title>N4&#45;&gt;gnd</title>
<path fill="none" stroke="#000000" d="M385.6002,-72.9166C382.0614,-65.3253 377.2785,-55.0652 372.8047,-45.4681"/>
<polygon fill="#000000" stroke="#000000" points="375.8888,-43.8001 368.4914,-36.2154 369.5443,-46.7578 375.8888,-43.8001"/>
</g>
<!-- gnd&#45;&gt;m_k1 -->
<g id="edge4" class="edge">
<title>gnd&#45;&gt;m_k1</title>
<path fill="none" stroke="#000000" stroke-width="2" d="M220.777,-36.0111C182.6257,-43.2787 147.7089,-52.8684 133,-65 115.4764,-79.4531 106.3516,-103.8936 101.6808,-123.0666"/>
<polygon fill="#000000" stroke="#000000" stroke-width="2" points="98.2083,-122.566 99.5191,-133.0794 105.0507,-124.0433 98.2083,-122.566"/>
<text text-anchor="middle" x="138" y="-80.8" font-family="Times,serif" font-size="14.00" fill="#000000">T</text>
</g>
</g>
</svg>
