<?xml version="1.0" encoding="UTF-8" standalone="no"?>
<!-- Created with Inkscape (http://www.inkscape.org/) -->

<svg
   xmlns:dc="http://purl.org/dc/elements/1.1/"
   xmlns:cc="http://creativecommons.org/ns#"
   xmlns:rdf="http://www.w3.org/1999/02/22-rdf-syntax-ns#"
   xmlns:svg="http://www.w3.org/2000/svg"
   xmlns="http://www.w3.org/2000/svg"
   xmlns:sodipodi="http://sodipodi.sourceforge.net/DTD/sodipodi-0.dtd"
   xmlns:inkscape="http://www.inkscape.org/namespaces/inkscape"
   width="178.46721mm"
   height="34.181103mm"
   viewBox="0 0 178.46721 34.181103"
   version="1.1"
   id="svg8"
   inkscape:version="0.92.4 (5da689c313, 2019-01-14)"
   sodipodi:docname="q1_model.svg">
  <defs
     id="defs2" />
  <sodipodi:namedview
     id="base"
     pagecolor="#ffffff"
     bordercolor="#666666"
     borderopacity="1.0"
     inkscape:pageopacity="0.0"
     inkscape:pageshadow="2"
     inkscape:zoom="0.35"
     inkscape:cx="236.49634"
     inkscape:cy="9.644418"
     inkscape:document-units="mm"
     inkscape:current-layer="layer1"
     showgrid="false"
     fit-margin-top="0"
     fit-margin-left="0"
     fit-margin-right="0"
     fit-margin-bottom="0"
     inkscape:window-width="1280"
     inkscape:window-height="737"
     inkscape:window-x="-8"
     inkscape:window-y="-8"
     inkscape:window-maximized="1" />
  <metadata
     id="metadata5">
    <rdf:RDF>
      <cc:Work
         rdf:about="">
        <dc:format>image/svg+xml</dc:format>
        <dc:type
           rdf:resource="http://purl.org/dc/dcmitype/StillImage" />
        <dc:title></dc:title>
      </cc:Work>
    </rdf:RDF>
  </metadata>
  <g
     inkscape:label="Layer 1"
     inkscape:groupmode="layer"
     id="layer1"
     transform="translate(85.629538,-117.20398)">
    <g
       id="g3977">
      <path
         id="path3715"
         d="M -30.791769,117.3612 H 52.11101 v 33.86667 h -82.902779 z m 0,0"
         style="fill:#ffffff;fill-opacity:1;fill-rule:nonzero;stroke:none;stroke-width:0.35277778"
         inkscape:connector-curvature="0" />
      <path
         id="path3717"
         d="m -24.088991,133.76537 h 69.144445 v 0.35278 h -69.144445 z m 0,0"
         style="fill:#000000;fill-opacity:1;fill-rule:evenodd;stroke:none;stroke-width:0.35277778"
         inkscape:connector-curvature="0" />
      <path
         id="path3719"
         d="m 0.52828375,129.00287 h -1.01423612 v 0.0717 l 0.11024306,0.0165 c 0.11024305,0.011 0.16536458,0.0331 0.16536458,0.0882 0,0.11024 -0.24804511,0.33624 -0.65594442,0.62839 l -0.70555555,0.5016 0.2480451,-0.89297 c 0.066146,-0.25907 0.2149757,-0.32521 0.45199653,-0.34175 v -0.0717 H -2.1120357 v 0.0717 c 0.286632,0.0165 0.3638021,0.0772 0.3638021,0.19844 0,0.0717 -0.033055,0.17087 -0.066146,0.28663 l -0.5677535,2.04501 c -0.066146,0.24805 -0.093705,0.29765 -0.3693125,0.33073 v 0.0717 h 1.1299896 v -0.0717 c -0.2480452,-0.0275 -0.3252153,-0.0606 -0.3252153,-0.20395 0,-0.0496 0.016545,-0.10473 0.049608,-0.23703 l 0.2976563,-1.0914 0.5677535,0.99219 c 0.0826805,0.14883 0.17087494,0.28112 0.17087494,0.37482 0,0.0827 -0.0716562,0.13781 -0.21497224,0.14883 l -0.1322916,0.0165 v 0.0717 h 1.26228121 v -0.0717 c -0.28663195,-0.0275 -0.33623956,-0.0551 -0.47955554,-0.30868 l -0.76619097,-1.34497 1.36701387,-1.03628 c 0.13229167,-0.0992 0.23702433,-0.17088 0.35277778,-0.17088 z m 0,0"
         style="fill:#000000;fill-opacity:1;fill-rule:nonzero;stroke:none;stroke-width:0.35277778"
         inkscape:connector-curvature="0" />
      <path
         id="path3721"
         d="m 3.8355754,130.45808 c 0,-0.0992 -0.066146,-0.19292 -0.1653645,-0.19292 -0.033055,0 -0.060632,0.005 -0.099219,0.0275 -0.1212674,0.0717 -0.2480451,0.31419 -0.5787743,0.49058 0,-0.3197 0.1322917,-0.61736 0.1322917,-0.76068 0,-0.0937 -0.088194,-0.1819 -0.1708785,-0.1819 -0.088195,0 -0.1763889,0.0882 -0.1763889,0.1819 0,0.14332 0.1322917,0.44649 0.1322917,0.76619 -0.2590695,-0.1378 -0.4630209,-0.41892 -0.5953125,-0.49609 -0.038583,-0.0221 -0.066146,-0.0275 -0.099219,-0.0275 -0.099219,0 -0.1653646,0.0937 -0.1653646,0.19292 0,0.0496 0.033055,0.0992 0.088195,0.13781 0.1322916,0.0772 0.4850694,0.12126 0.7220938,0.25906 -0.2370244,0.13781 -0.5787779,0.18191 -0.7000452,0.25356 -0.071656,0.0386 -0.099219,0.11576 -0.099219,0.17639 0,0.0772 0.060636,0.14883 0.1708785,0.14883 0.044097,0 0.082681,-0.0165 0.1212674,-0.0386 0.1047291,-0.0551 0.3197049,-0.34176 0.5567257,-0.47956 0,0.31419 -0.1322917,0.60082 -0.1322917,0.74414 0,0.0937 0.088194,0.19293 0.1763889,0.19293 0.082684,0 0.1708785,-0.0992 0.1708785,-0.19293 0,-0.14332 -0.1322917,-0.42995 -0.1322917,-0.74414 0.3527778,0.19844 0.4685312,0.52365 0.6559444,0.52365 0.115757,0 0.1819028,-0.0882 0.1819028,-0.1819 0,-0.0551 -0.033055,-0.11024 -0.099219,-0.14331 -0.1212674,-0.0772 -0.4189236,-0.0882 -0.7055556,-0.25908 0.3307292,-0.18741 0.5953125,-0.18741 0.711066,-0.25906 0.066146,-0.0331 0.099219,-0.0882 0.099219,-0.13781 z m 0,0"
         style="fill:#000000;fill-opacity:1;fill-rule:nonzero;stroke:none;stroke-width:0.35277778"
         inkscape:connector-curvature="0" />
      <path
         id="path3723"
         d="m 7.2972074,130.62344 c 0,-0.4079 -0.2756076,-0.64492 -0.6449201,-0.64492 -0.1874132,0 -0.369316,0.0441 -0.5512153,0.13781 -0.4795591,0.25907 -0.8268229,0.78272 -0.8268229,1.29535 0,0.40239 0.2480451,0.63941 0.677993,0.63941 0.3031702,0 0.5953125,-0.11575 0.8598959,-0.38034 0.3031701,-0.29765 0.4850694,-0.70004 0.4850694,-1.04731 z m -0.3803368,-0.11575 c 0,0.34726 -0.1322916,0.77721 -0.3417535,1.06936 -0.1819028,0.24804 -0.3527777,0.38034 -0.5567292,0.38034 -0.2149721,0 -0.3582881,-0.14332 -0.3582881,-0.41893 0,-0.3638 0.1322916,-0.72209 0.3417535,-1.04731 0.1818992,-0.27561 0.3858507,-0.41341 0.5842882,-0.41341 0.1984375,0 0.3307291,0.14883 0.3307291,0.42995 z m 0,0"
         style="fill:#000000;fill-opacity:1;fill-rule:nonzero;stroke:none;stroke-width:0.35277778"
         inkscape:connector-curvature="0" />
      <path
         id="path3725"
         d="m 10.676159,131.52193 -0.07166,-0.0551 -0.0937,0.11575 c -0.137805,0.17088 -0.220486,0.24253 -0.297656,0.24253 -0.03859,0 -0.05512,-0.022 -0.05512,-0.0716 0,-0.0166 0.01655,-0.0992 0.0441,-0.20395 l 0.314191,-1.15204 c 0,-0.022 0.01101,-0.0992 0.01101,-0.13229 0,-0.15986 -0.0937,-0.28664 -0.264583,-0.28664 -0.0937,0 -0.181899,0.0221 -0.2921424,0.0937 -0.2204861,0.14331 -0.4078993,0.36931 -0.733118,0.87643 0.1267812,-0.35277 0.1874131,-0.60633 0.1874131,-0.69453 0,-0.16536 -0.093705,-0.27561 -0.2756076,-0.27561 -0.281118,0 -0.6008229,0.30317 -1.0087222,0.97014 l 0.2645833,-0.95911 -0.016545,-0.011 -0.7386285,0.14332 v 0.0717 h 0.110243 c 0.1267813,0 0.1929272,0.0331 0.1929272,0.0992 0,0.0551 -0.07166,0.44097 -0.2535591,1.04731 l -0.1984375,0.66697 h 0.3417535 c 0.2204861,-0.7276 0.2866319,-0.89296 0.4409722,-1.12999 0.2590694,-0.39136 0.5291667,-0.66146 0.683507,-0.66146 0.060632,0 0.1047291,0.0441 0.1047291,0.11576 0,0.0606 -0.110243,0.5457 -0.3141909,1.24575 l -0.1267813,0.42994 h 0.3472674 c 0.1763889,-0.71107 0.2700937,-0.93155 0.4960937,-1.25126 0.2259965,-0.3197 0.4630209,-0.54019 0.600823,-0.54019 0.04961,0 0.08819,0.0441 0.08819,0.0992 0,0.022 -0.0055,0.0827 -0.02755,0.17639 l -0.2700968,1.0418 c -0.044097,0.17639 -0.060632,0.25907 -0.060632,0.30317 0,0.13229 0.066146,0.20395 0.1874132,0.20395 0.2149716,0 0.4134096,-0.14883 0.6614586,-0.49059 z m 0,0"
         style="fill:#000000;fill-opacity:1;fill-rule:nonzero;stroke:none;stroke-width:0.35277778"
         inkscape:connector-curvature="0" />
      <path
         id="path3727"
         d="m 12.390437,131.49988 c -0.33073,0.27009 -0.474046,0.34726 -0.672483,0.34726 -0.259069,0 -0.429948,-0.16536 -0.429948,-0.41892 0,-0.0662 0,-0.18741 0.04961,-0.28112 0.815799,-0.10473 1.300868,-0.46302 1.300868,-0.85439 0,-0.19292 -0.132291,-0.31419 -0.374826,-0.31419 -0.689021,0 -1.372528,0.73312 -1.372528,1.44419 0,0.38033 0.248049,0.62838 0.617361,0.62838 0.38034,0 0.672483,-0.17088 0.937066,-0.49609 z m -0.948091,-0.65595 c 0.159855,-0.4079 0.468535,-0.76068 0.733118,-0.76068 0.126778,0 0.159851,0.0717 0.159851,0.18191 0,0.1378 -0.08819,0.30316 -0.23151,0.44097 -0.170875,0.15985 -0.341754,0.24253 -0.738629,0.34175 z m 0,0"
         style="fill:#000000;fill-opacity:1;fill-rule:nonzero;stroke:none;stroke-width:0.35277778"
         inkscape:connector-curvature="0" />
      <path
         id="path3729"
         d="m 14.942565,130.32028 v -0.17639 h -0.275608 c -0.01655,0 -0.03859,-0.011 -0.07166,-0.0386 -0.126778,-0.0827 -0.275608,-0.12678 -0.451997,-0.12678 -0.463021,0 -0.920528,0.31419 -0.920528,0.78273 0,0.24253 0.10473,0.4079 0.363803,0.49609 -0.248049,0.11576 -0.352778,0.25356 -0.352778,0.38585 0,0.0606 0.03858,0.12678 0.121267,0.1819 -0.451996,0.2701 -0.53468,0.39137 -0.53468,0.62839 0,0.32522 0.297656,0.49058 0.766191,0.49058 0.606336,0 0.959114,-0.29214 0.959114,-0.68902 0,-0.27561 -0.209462,-0.47955 -0.650434,-0.58429 -0.198437,-0.0496 -0.325219,-0.11024 -0.325219,-0.19292 0,-0.0937 0.0882,-0.18741 0.165365,-0.18741 0.01101,0 0.01654,0 0.03305,0.005 0.03859,0.011 0.09371,0.011 0.143316,0.011 0.424438,0 0.848872,-0.36381 0.848872,-0.74966 0,-0.0772 0,-0.15434 -0.0441,-0.23702 z m -0.545705,0.0827 c 0,0.19293 -0.06063,0.38585 -0.15434,0.54019 -0.110243,0.18741 -0.23151,0.2701 -0.385851,0.2701 -0.176389,0 -0.275607,-0.12679 -0.275607,-0.34727 0,-0.452 0.275607,-0.78824 0.556729,-0.78824 0.170875,0 0.259069,0.0827 0.259069,0.32522 z m -0.126778,2.01194 c 0,0.23151 -0.248048,0.42994 -0.617361,0.42994 -0.363802,0 -0.584288,-0.14883 -0.584288,-0.46853 0,-0.10473 0.02755,-0.17639 0.0937,-0.26458 0.06615,-0.0827 0.259073,-0.23703 0.297656,-0.23703 0.04961,0.0166 0.09922,0.0331 0.154341,0.0496 0.490583,0.14883 0.655947,0.28112 0.655947,0.49059 z m 0,0"
         style="fill:#000000;fill-opacity:1;fill-rule:nonzero;stroke:none;stroke-width:0.35277778"
         inkscape:connector-curvature="0" />
      <path
         id="path3731"
         d="m 17.191523,131.49436 -0.121267,0.1323 c -0.137805,0.14883 -0.198437,0.18741 -0.237024,0.18741 -0.03858,0 -0.06615,-0.0275 -0.06615,-0.0606 0,-0.0937 0.192927,-0.88195 0.407899,-1.66467 0.01101,-0.0441 0.01655,-0.0551 0.02755,-0.0937 l -0.03306,-0.0165 -0.281122,0.0331 -0.01101,0.011 -0.04961,0.22048 c -0.03859,-0.16536 -0.170878,-0.26458 -0.369316,-0.26458 -0.611847,0 -1.311892,0.83233 -1.311892,1.5434 0,0.34726 0.203951,0.52917 0.45751,0.52917 0.325215,0 0.589799,-0.19844 0.931552,-0.71658 -0.0937,0.37482 -0.104729,0.4079 -0.104729,0.52365 0,0.13229 0.05512,0.18741 0.181899,0.18741 0.187414,0 0.297657,-0.0827 0.63941,-0.5016 z m -0.446486,-1.14652 c 0,0.32522 -0.137802,0.71658 -0.352777,1.03077 -0.137803,0.19844 -0.352778,0.44648 -0.584289,0.44648 -0.165364,0 -0.275607,-0.0827 -0.275607,-0.33624 0,-0.29214 0.159854,-0.70004 0.352777,-0.98667 0.192928,-0.28112 0.396875,-0.42444 0.600827,-0.42444 0.159851,0 0.259069,0.11025 0.259069,0.2701 z m 0,0"
         style="fill:#000000;fill-opacity:1;fill-rule:nonzero;stroke:none;stroke-width:0.35277778"
         inkscape:connector-curvature="0" />
      <path
         id="path3733"
         d="m 18.99951,132.33773 c -0.02205,0.0276 -0.0441,0.0551 -0.06615,0.0827 -0.09371,0.11575 -0.14883,0.16536 -0.192927,0.16536 -0.03858,0 -0.04961,-0.0275 -0.04961,-0.0551 0,-0.0276 0.01101,-0.0827 0.0441,-0.19292 l 0.176389,-0.64493 c 0.01655,-0.0661 0.03306,-0.1378 0.03306,-0.19292 0,-0.11576 -0.07166,-0.19293 -0.209461,-0.19293 -0.203952,0 -0.413414,0.18741 -0.733118,0.70005 l 0.214975,-0.69454 -0.01655,-0.005 c -0.165365,0.0331 -0.253559,0.0496 -0.512628,0.0992 v 0.0496 c 0.15985,0.005 0.209461,0.022 0.209461,0.0882 0,0.0165 -0.0055,0.0331 -0.01101,0.0496 l -0.303171,1.11897 h 0.237025 c 0.148826,-0.50712 0.176389,-0.57878 0.319705,-0.79375 0.198437,-0.29214 0.341753,-0.45199 0.468531,-0.45199 0.04961,0 0.07717,0.0386 0.07717,0.0937 0,0.0386 -0.01655,0.15434 -0.0441,0.25356 l -0.137802,0.51263 c -0.0441,0.16537 -0.05512,0.20395 -0.05512,0.23702 0,0.12127 0.07166,0.17088 0.148827,0.17088 0.15434,0 0.23151,-0.0606 0.446486,-0.35829 z m 0,0"
         style="fill:#000000;fill-opacity:1;fill-rule:nonzero;stroke:none;stroke-width:0.35277778"
         inkscape:connector-curvature="0" />
      <path
         id="path3735"
         d="m 20.994909,130.63998 -0.832337,-1.67569 h -0.270094 l -0.832336,1.67569 h 0.314194 l 0.655944,-1.32843 0.655948,1.32843 z m 0,0"
         style="fill:#000000;fill-opacity:1;fill-rule:nonzero;stroke:none;stroke-width:0.35277778"
         inkscape:connector-curvature="0" />
      <path
         id="path3737"
         d="m 23.271426,131.3731 -0.06063,-0.0276 c -0.15434,0.25907 -0.248048,0.30868 -0.440972,0.30868 h -1.074871 l 0.755166,-0.81029 c 0.41341,-0.42995 0.589799,-0.7717 0.589799,-1.1355 0,-0.452 -0.330729,-0.80478 -0.848872,-0.80478 -0.562239,0 -0.859896,0.37483 -0.9536,0.90951 l 0.0937,0.022 c 0.187414,-0.44649 0.347268,-0.59531 0.677997,-0.59531 0.385851,0 0.633896,0.23151 0.633896,0.64492 0,0.39136 -0.165365,0.73862 -0.595313,1.19613 l -0.815798,0.86541 v 0.0551 h 1.791451 z m 0,0"
         style="fill:#000000;fill-opacity:1;fill-rule:nonzero;stroke:none;stroke-width:0.35277778"
         inkscape:connector-curvature="0" />
      <path
         id="path3739"
         d="m -22.407782,136.67579 h -0.06615 c -0.03859,0.0661 -0.07166,0.0827 -0.137806,0.0827 -0.03858,0 -0.07717,-0.005 -0.165364,-0.033 -0.115754,-0.0276 -0.176389,-0.0441 -0.25907,-0.0441 -0.336243,0 -0.551215,0.19292 -0.551215,0.49609 0,0.14883 0.08819,0.35278 0.286632,0.60083 0.181899,0.226 0.259069,0.38034 0.259069,0.52916 0,0.22049 -0.132291,0.35278 -0.352777,0.35278 -0.237021,0 -0.391362,-0.18741 -0.457507,-0.62287 h -0.07166 l -0.0937,0.7276 h 0.07717 c 0.02755,-0.0717 0.08268,-0.0992 0.132292,-0.0992 0.04961,0 0.115753,0.006 0.198437,0.0441 0.110243,0.0386 0.176389,0.0441 0.253559,0.0441 0.380337,0 0.661459,-0.23151 0.661459,-0.61185 0,-0.1819 -0.08268,-0.35829 -0.314195,-0.62287 -0.176389,-0.21498 -0.248045,-0.34727 -0.248045,-0.46854 0,-0.17087 0.110243,-0.26458 0.275608,-0.26458 0.220486,0 0.358288,0.15434 0.407899,0.53468 h 0.07166 z m 0,0"
         style="fill:#000000;fill-opacity:1;fill-rule:nonzero;stroke:none;stroke-width:0.35277778"
         inkscape:connector-curvature="0" />
      <path
         id="path3741"
         d="m -20.820282,136.50491 -0.0441,-0.0165 c -0.104732,0.17639 -0.170878,0.20946 -0.30317,0.20946 h -0.744139 l 0.523653,-0.55673 c 0.281122,-0.29765 0.407899,-0.54019 0.407899,-0.78824 0,-0.31419 -0.23151,-0.55672 -0.589798,-0.55672 -0.391365,0 -0.595313,0.25907 -0.661458,0.62838 l 0.06615,0.0165 c 0.126778,-0.30868 0.242535,-0.41341 0.468532,-0.41341 0.270097,0 0.440972,0.15985 0.440972,0.44648 0,0.2701 -0.115754,0.51263 -0.41341,0.82682 l -0.562239,0.60083 v 0.0386 h 1.240232 z m 0,0"
         style="fill:#000000;fill-opacity:1;fill-rule:nonzero;stroke:none;stroke-width:0.35277778"
         inkscape:connector-curvature="0" />
      <path
         id="path3743"
         d="m -16.7909,137.69554 v -0.30317 h -1.196136 v -1.19614 h -0.30317 v 1.19614 h -1.196135 v 0.30317 h 1.196135 v 1.19613 h 0.30317 v -1.19613 z m 0,0"
         style="fill:#000000;fill-opacity:1;fill-rule:nonzero;stroke:none;stroke-width:0.35277778"
         inkscape:connector-curvature="0" />
      <path
         id="path3745"
         d="m -13.38439,138.07587 -0.06063,-0.0276 c -0.15434,0.25907 -0.248049,0.30868 -0.440972,0.30868 h -1.074872 l 0.755167,-0.81028 c 0.41341,-0.42995 0.589799,-0.77171 0.589799,-1.13551 0,-0.45199 -0.33073,-0.80477 -0.848872,-0.80477 -0.562239,0 -0.859896,0.37482 -0.953601,0.9095 l 0.0937,0.0221 c 0.187413,-0.44648 0.347268,-0.59531 0.677997,-0.59531 0.385851,0 0.633896,0.23151 0.633896,0.64492 0,0.39137 -0.165365,0.73863 -0.595313,1.19614 l -0.815798,0.86541 v 0.0551 h 1.791451 z m 0,0"
         style="fill:#000000;fill-opacity:1;fill-rule:nonzero;stroke:none;stroke-width:0.35277778"
         inkscape:connector-curvature="0" />
      <path
         id="path3747"
         d="m -10.154268,137.16086 c 0,-0.0992 -0.06615,-0.19293 -0.165365,-0.19293 -0.03306,0 -0.06063,0.006 -0.09922,0.0276 -0.121267,0.0717 -0.248045,0.31419 -0.578774,0.49058 0,-0.31971 0.132292,-0.61736 0.132292,-0.76068 0,-0.0937 -0.08819,-0.1819 -0.170879,-0.1819 -0.08819,0 -0.176389,0.0882 -0.176389,0.1819 0,0.14332 0.132292,0.44648 0.132292,0.76619 -0.259069,-0.1378 -0.463021,-0.41892 -0.595313,-0.49609 -0.03858,-0.022 -0.06615,-0.0276 -0.09922,-0.0276 -0.09922,0 -0.165365,0.0937 -0.165365,0.19293 0,0.0496 0.03305,0.0992 0.0882,0.1378 0.132291,0.0772 0.485069,0.12127 0.722093,0.25907 -0.237024,0.13781 -0.578777,0.18191 -0.700045,0.25356 -0.07166,0.0386 -0.09922,0.11576 -0.09922,0.17639 0,0.0772 0.06064,0.14883 0.170879,0.14883 0.0441,0 0.08268,-0.0165 0.121267,-0.0386 0.104729,-0.0551 0.319705,-0.34175 0.556726,-0.47955 0,0.31419 -0.132292,0.60082 -0.132292,0.74414 0,0.0937 0.0882,0.19292 0.176389,0.19292 0.08268,0 0.170879,-0.0992 0.170879,-0.19292 0,-0.14332 -0.132292,-0.42995 -0.132292,-0.74414 0.352778,0.19844 0.468531,0.52365 0.655944,0.52365 0.115757,0 0.181903,-0.0882 0.181903,-0.1819 0,-0.0551 -0.03305,-0.11024 -0.09922,-0.14331 -0.121267,-0.0772 -0.418923,-0.0882 -0.705555,-0.25908 0.330729,-0.18741 0.595312,-0.18741 0.711066,-0.25907 0.06615,-0.0331 0.09922,-0.0882 0.09922,-0.1378 z m 0,0"
         style="fill:#000000;fill-opacity:1;fill-rule:nonzero;stroke:none;stroke-width:0.35277778"
         inkscape:connector-curvature="0" />
      <path
         id="path3749"
         d="m -7.0950218,136.79154 v -0.0496 h -1.2953577 l -0.1488264,0.52917 0.071656,0.0221 c 0.093708,-0.23702 0.1819028,-0.27561 0.4189236,-0.27561 h 0.622875 l -1.4221354,1.70326 0.044097,0.0441 c 0.071656,-0.0606 0.1322917,-0.0827 0.2039479,-0.0827 0.1212674,0 0.2700972,0.0606 0.4850694,0.19293 0.2260001,0.14331 0.3858507,0.19844 0.5181424,0.19844 0.253559,0 0.4244375,-0.16537 0.4244375,-0.34727 0,-0.0992 -0.066146,-0.17088 -0.1598542,-0.17088 -0.071656,0 -0.1488263,0.0827 -0.1543402,0.15985 0,0.0331 0.011007,0.0717 0.038587,0.12679 0.016545,0.0275 0.022049,0.0496 0.022049,0.0661 0,0.0441 -0.049611,0.0717 -0.1212674,0.0717 -0.1157569,0 -0.2039514,-0.0551 -0.3197048,-0.23151 -0.1874132,-0.2701 -0.286632,-0.31971 -0.5512153,-0.38034 z m 0,0"
         style="fill:#000000;fill-opacity:1;fill-rule:nonzero;stroke:none;stroke-width:0.35277778"
         inkscape:connector-curvature="0" />
      <path
         id="path3751"
         d="m -5.413817,138.20266 c -0.3307292,0.27009 -0.4740451,0.34726 -0.6724826,0.34726 -0.2590694,0 -0.4299479,-0.16536 -0.4299479,-0.41892 0,-0.0661 0,-0.18742 0.049611,-0.28112 0.8157986,-0.10473 1.3008681,-0.46302 1.3008681,-0.85439 0,-0.19292 -0.1322917,-0.31419 -0.3748264,-0.31419 -0.6890209,0 -1.3725278,0.73312 -1.3725278,1.44419 0,0.38033 0.2480486,0.62838 0.6173611,0.62838 0.3803403,0 0.6724826,-0.17088 0.9370659,-0.49609 z m -0.9480903,-0.65595 c 0.1598542,-0.4079 0.4685348,-0.76068 0.7331181,-0.76068 0.1267778,0 0.1598507,0.0717 0.1598507,0.1819 0,0.13781 -0.088195,0.30317 -0.2315104,0.44098 -0.170875,0.15985 -0.3417535,0.24253 -0.7386285,0.34175 z m 0,0"
         style="fill:#000000;fill-opacity:1;fill-rule:nonzero;stroke:none;stroke-width:0.35277778"
         inkscape:connector-curvature="0" />
      <path
         id="path3753"
         d="m -3.6664628,136.74193 h -0.3638021 l 0.1267778,-0.47404 c 0.0055,-0.005 0.0055,-0.0331 0.0055,-0.0331 0,-0.022 -0.016545,-0.033 -0.044097,-0.033 -0.016545,0 -0.044097,0.011 -0.060635,0.0386 -0.1653646,0.24805 -0.4630209,0.47405 -0.6118472,0.50712 -0.1102431,0.0221 -0.1488299,0.0606 -0.1488299,0.11576 0,0 0,0.011 0,0.0276 h 0.3472674 l -0.3582917,1.35599 c -0.038583,0.14331 -0.071656,0.28663 -0.071656,0.33624 0,0.11575 0.082681,0.17088 0.2094618,0.17088 0.2370208,0 0.3803368,-0.1323 0.6559445,-0.55673 l -0.060621,-0.0276 c -0.226,0.28663 -0.2976562,0.35829 -0.369316,0.35829 -0.044097,0 -0.071656,-0.011 -0.071656,-0.0717 0,-0.011 0.0055,-0.0441 0.011007,-0.0661 l 0.396875,-1.49931 h 0.3858683 z m 0,0"
         style="fill:#000000;fill-opacity:1;fill-rule:nonzero;stroke:none;stroke-width:0.35277778"
         inkscape:connector-curvature="0" />
      <path
         id="path3755"
         d="m -1.6269662,138.19714 -0.1212674,0.13229 c -0.1378056,0.14883 -0.1984375,0.18742 -0.2370243,0.18742 -0.038583,0 -0.066146,-0.0276 -0.066146,-0.0606 0,-0.0937 0.1929271,-0.88194 0.4078993,-1.66467 0.011007,-0.0441 0.016545,-0.0551 0.027552,-0.0937 l -0.033055,-0.0166 -0.2811216,0.0331 -0.011007,0.011 -0.049608,0.22049 c -0.038587,-0.16537 -0.1708785,-0.26458 -0.369316,-0.26458 -0.6118472,0 -1.3118924,0.83233 -1.3118924,1.5434 0,0.34726 0.2039514,0.52917 0.4575104,0.52917 0.3252153,0 0.5897986,-0.19844 0.9315521,-0.71658 -0.093705,0.37482 -0.1047291,0.40789 -0.1047291,0.52365 0,0.13229 0.055122,0.18741 0.1818992,0.18741 0.1874132,0 0.2976563,-0.0827 0.6394098,-0.5016 z m -0.4464862,-1.14653 c 0,0.32522 -0.137802,0.71658 -0.3527778,1.03078 -0.137802,0.19844 -0.3527777,0.44648 -0.5842882,0.44648 -0.1653645,0 -0.2756076,-0.0827 -0.2756076,-0.33624 0,-0.29214 0.1598542,-0.70004 0.3527778,-0.98668 0.1929271,-0.28111 0.396875,-0.42443 0.6008264,-0.42443 0.1598507,0 0.2590694,0.11024 0.2590694,0.27009 z m 0,0"
         style="fill:#000000;fill-opacity:1;fill-rule:nonzero;stroke:none;stroke-width:0.35277778"
         inkscape:connector-curvature="0" />
      <path
         id="path3757"
         d="m 1.6527629,137.16086 c 0,-0.0992 -0.066146,-0.19293 -0.1653646,-0.19293 -0.033055,0 -0.060632,0.006 -0.099219,0.0276 -0.1212674,0.0717 -0.2480451,0.31419 -0.57877429,0.49058 0,-0.31971 0.13229166,-0.61736 0.13229166,-0.76068 0,-0.0937 -0.0881944,-0.1819 -0.1708785,-0.1819 -0.0881944,0 -0.17638889,0.0882 -0.17638889,0.1819 0,0.14332 0.13229167,0.44648 0.13229167,0.76619 -0.25906942,-0.1378 -0.46302084,-0.41892 -0.5953125,-0.49609 -0.03858331,-0.022 -0.06614584,-0.0276 -0.09921876,-0.0276 -0.09921875,0 -0.16536458,0.0937 -0.16536458,0.19293 0,0.0496 0.0330553,0.0992 0.08819445,0.1378 0.13229166,0.0772 0.48506944,0.12127 0.72209378,0.25907 -0.23702434,0.13781 -0.57877781,0.18191 -0.70004517,0.25356 -0.07165623,0.0386 -0.09921875,0.11576 -0.09921875,0.17639 0,0.0772 0.06063544,0.14883 0.1708785,0.14883 0.04409722,0 0.08268053,-0.0165 0.12126736,-0.0386 0.10472914,-0.0551 0.31970486,-0.34175 0.55672567,-0.47955 0,0.31419 -0.13229167,0.60082 -0.13229167,0.74414 0,0.0937 0.0881945,0.19292 0.17638889,0.19292 0.0826841,0 0.1708785,-0.0992 0.1708785,-0.19292 0,-0.14332 -0.13229166,-0.42995 -0.13229166,-0.74414 0.35277779,0.19844 0.46853119,0.52365 0.65594439,0.52365 0.115757,0 0.1819028,-0.0882 0.1819028,-0.1819 0,-0.0551 -0.033055,-0.11024 -0.099219,-0.14331 -0.1212674,-0.0772 -0.4189236,-0.0882 -0.70555558,-0.25908 0.33072918,-0.18741 0.59531248,-0.18741 0.71106598,-0.25907 0.066146,-0.0331 0.099219,-0.0882 0.099219,-0.1378 z m 0,0"
         style="fill:#000000;fill-opacity:1;fill-rule:nonzero;stroke:none;stroke-width:0.35277778"
         inkscape:connector-curvature="0" />
      <path
         id="path3759"
         d="m 5.1143949,137.32622 c 0,-0.4079 -0.2756077,-0.64492 -0.6449201,-0.64492 -0.1874132,0 -0.369316,0.0441 -0.5512153,0.1378 -0.4795591,0.25908 -0.8268229,0.78273 -0.8268229,1.29536 0,0.40239 0.2480451,0.63941 0.677993,0.63941 0.3031702,0 0.5953125,-0.11576 0.8598958,-0.38034 0.3031702,-0.29766 0.4850695,-0.70004 0.4850695,-1.04731 z m -0.3803368,-0.11575 c 0,0.34726 -0.1322917,0.77721 -0.3417535,1.06936 -0.1819028,0.24804 -0.3527777,0.38033 -0.5567292,0.38033 -0.2149722,0 -0.3582881,-0.14331 -0.3582881,-0.41892 0,-0.3638 0.1322916,-0.72209 0.3417534,-1.04731 0.1818993,-0.27561 0.3858507,-0.41341 0.5842882,-0.41341 0.1984375,0 0.3307292,0.14883 0.3307292,0.42995 z m 0,0"
         style="fill:#000000;fill-opacity:1;fill-rule:nonzero;stroke:none;stroke-width:0.35277778"
         inkscape:connector-curvature="0" />
      <path
         id="path3761"
         d="m 8.4933463,138.2247 -0.07166,-0.0551 -0.093705,0.11576 c -0.1378055,0.17087 -0.2204861,0.24253 -0.2976562,0.24253 -0.038587,0 -0.055122,-0.0221 -0.055122,-0.0717 0,-0.0165 0.016545,-0.0992 0.044097,-0.20395 l 0.3141909,-1.15203 c 0,-0.0221 0.011007,-0.0992 0.011007,-0.1323 0,-0.15985 -0.093705,-0.28663 -0.2645833,-0.28663 -0.093705,0 -0.1818993,0.0221 -0.2921424,0.0937 -0.2204861,0.14331 -0.4078993,0.36931 -0.7331181,0.87643 0.1267813,-0.35278 0.1874132,-0.60634 0.1874132,-0.69453 0,-0.16537 -0.093705,-0.27561 -0.2756076,-0.27561 -0.281118,0 -0.6008229,0.30317 -1.0087222,0.97014 l 0.2645833,-0.95911 -0.016545,-0.011 -0.7386285,0.14332 v 0.0717 h 0.110243 c 0.1267813,0 0.1929271,0.0331 0.1929271,0.0992 0,0.0551 -0.07166,0.44097 -0.253559,1.04731 L 5.318321,138.7098 h 0.3417782 c 0.2204861,-0.7276 0.2866319,-0.89297 0.4409722,-1.12999 0.2590694,-0.39136 0.5291667,-0.66146 0.683507,-0.66146 0.060632,0 0.1047291,0.0441 0.1047291,0.11576 0,0.0606 -0.1102431,0.5457 -0.314191,1.24574 l -0.1267812,0.42995 h 0.3472674 c 0.1763888,-0.71107 0.2700937,-0.93155 0.4960937,-1.25126 0.2259965,-0.3197 0.4630208,-0.54019 0.6008229,-0.54019 0.049611,0 0.088195,0.0441 0.088195,0.0992 0,0.0221 -0.0055,0.0827 -0.027552,0.17639 l -0.2700972,1.0418 c -0.044097,0.17639 -0.060632,0.25907 -0.060632,0.30316 0,0.13229 0.066146,0.20395 0.1874132,0.20395 0.2149722,0 0.4134097,-0.14883 0.6614584,-0.49058 z m 0,0"
         style="fill:#000000;fill-opacity:1;fill-rule:nonzero;stroke:none;stroke-width:0.35277778"
         inkscape:connector-curvature="0" />
      <path
         id="path3763"
         d="m 10.213138,138.20266 c -0.3307292,0.27009 -0.4740451,0.34726 -0.6724826,0.34726 -0.259073,0 -0.429948,-0.16536 -0.429948,-0.41892 0,-0.0661 0,-0.18742 0.049608,-0.28112 0.8157986,-0.10473 1.3008676,-0.46302 1.3008676,-0.85439 0,-0.19292 -0.132292,-0.31419 -0.374826,-0.31419 -0.6890173,0 -1.3725243,0.73312 -1.3725243,1.44419 0,0.38033 0.2480452,0.62838 0.6173612,0.62838 0.3803367,0 0.6724821,-0.17088 0.9370661,-0.49609 z m -0.9480903,-0.65595 c 0.1598507,-0.4079 0.4685312,-0.76068 0.7331146,-0.76068 0.1267817,0 0.1598537,0.0717 0.1598537,0.1819 0,0.13781 -0.08819,0.30317 -0.2315099,0.44098 -0.1708785,0.15985 -0.3417535,0.24253 -0.7386285,0.34175 z m 0,0"
         style="fill:#000000;fill-opacity:1;fill-rule:nonzero;stroke:none;stroke-width:0.35277778"
         inkscape:connector-curvature="0" />
      <path
         id="path3765"
         d="m 12.765263,137.02306 v -0.17639 h -0.275608 c -0.01655,0 -0.03858,-0.011 -0.07166,-0.0386 -0.126781,-0.0827 -0.275608,-0.12678 -0.451996,-0.12678 -0.463021,0 -0.920532,0.31419 -0.920532,0.78273 0,0.24253 0.104733,0.4079 0.363802,0.49609 -0.248045,0.11575 -0.352777,0.25356 -0.352777,0.38585 0,0.0606 0.03859,0.12678 0.121267,0.1819 -0.451997,0.2701 -0.534677,0.39137 -0.534677,0.62839 0,0.32522 0.297656,0.49058 0.766187,0.49058 0.606337,0 0.959115,-0.29215 0.959115,-0.68902 0,-0.27561 -0.209462,-0.47956 -0.650434,-0.58429 -0.198438,-0.0496 -0.325215,-0.11024 -0.325215,-0.19292 0,-0.0937 0.08819,-0.18742 0.165364,-0.18742 0.01101,0 0.01655,0 0.03306,0.006 0.03858,0.011 0.0937,0.011 0.143316,0.011 0.424434,0 0.848871,-0.3638 0.848871,-0.74965 0,-0.0772 0,-0.15434 -0.0441,-0.23702 z m -0.545701,0.0827 c 0,0.19292 -0.06064,0.38585 -0.154341,0.54019 -0.110243,0.18741 -0.23151,0.27009 -0.38585,0.27009 -0.176389,0 -0.275608,-0.12678 -0.275608,-0.34726 0,-0.452 0.275608,-0.78824 0.556726,-0.78824 0.170878,0 0.259073,0.0827 0.259073,0.32522 z m -0.126782,2.01193 c 0,0.23151 -0.248045,0.42995 -0.617361,0.42995 -0.363802,0 -0.584288,-0.14883 -0.584288,-0.46853 0,-0.10473 0.02755,-0.17639 0.09371,-0.26459 0.06615,-0.0827 0.25907,-0.23702 0.297657,-0.23702 0.04961,0.0165 0.09922,0.0331 0.15434,0.0496 0.49058,0.14883 0.655944,0.28112 0.655944,0.49058 z m 0,0"
         style="fill:#000000;fill-opacity:1;fill-rule:nonzero;stroke:none;stroke-width:0.35277778"
         inkscape:connector-curvature="0" />
      <path
         id="path3767"
         d="m 15.019735,138.19714 -0.121267,0.13229 c -0.137806,0.14883 -0.198438,0.18742 -0.237024,0.18742 -0.03858,0 -0.06615,-0.0276 -0.06615,-0.0606 0,-0.0937 0.192927,-0.88194 0.407899,-1.66467 0.01101,-0.0441 0.01655,-0.0551 0.02755,-0.0937 l -0.03306,-0.0166 -0.281122,0.0331 -0.01101,0.011 -0.04961,0.22049 c -0.03859,-0.16537 -0.170879,-0.26458 -0.369316,-0.26458 -0.611847,0 -1.311893,0.83233 -1.311893,1.5434 0,0.34726 0.203952,0.52917 0.457511,0.52917 0.325215,0 0.589799,-0.19844 0.931552,-0.71658 -0.0937,0.37482 -0.104729,0.40789 -0.104729,0.52365 0,0.13229 0.05512,0.18741 0.181899,0.18741 0.187413,0 0.297656,-0.0827 0.63941,-0.5016 z m -0.446486,-1.14653 c 0,0.32522 -0.137802,0.71658 -0.352778,1.03078 -0.137802,0.19844 -0.352777,0.44648 -0.584288,0.44648 -0.165364,0 -0.275608,-0.0827 -0.275608,-0.33624 0,-0.29214 0.159855,-0.70004 0.352778,-0.98668 0.192927,-0.28111 0.396875,-0.42443 0.600827,-0.42443 0.15985,0 0.259069,0.11024 0.259069,0.27009 z m 0,0"
         style="fill:#000000;fill-opacity:1;fill-rule:nonzero;stroke:none;stroke-width:0.35277778"
         inkscape:connector-curvature="0" />
      <path
         id="path3769"
         d="m 17.483666,139.27752 v -0.23151 H 15.19061 v 0.23151 z m 0,0"
         style="fill:#000000;fill-opacity:1;fill-rule:nonzero;stroke:none;stroke-width:0.35277778"
         inkscape:connector-curvature="0" />
      <path
         id="path3771"
         d="m 19.594822,138.16958 c -0.03306,0.0386 -0.06615,0.0827 -0.09922,0.11576 -0.132291,0.17087 -0.214975,0.24253 -0.275607,0.24253 -0.05512,0 -0.07717,-0.0386 -0.07717,-0.0827 0,-0.0331 0.02205,-0.11024 0.06614,-0.27561 l 0.253559,-0.93155 c 0.02755,-0.0992 0.04961,-0.19293 0.04961,-0.27561 0,-0.16536 -0.104729,-0.28112 -0.297656,-0.28112 -0.297656,0 -0.600823,0.27561 -1.063844,1.00872 l 0.308681,-0.99769 -0.01655,-0.011 c -0.242534,0.0496 -0.369312,0.0717 -0.744139,0.14332 v 0.0717 c 0.237021,0.006 0.297657,0.0331 0.297657,0.12678 0,0.0276 -0.0055,0.0551 -0.0055,0.0772 l -0.440972,1.60955 h 0.341754 c 0.214975,-0.7276 0.253559,-0.83234 0.45751,-1.14102 0.292142,-0.42994 0.496094,-0.65043 0.677993,-0.65043 0.07166,0 0.110243,0.0496 0.110243,0.13229 0,0.0551 -0.02755,0.22049 -0.06063,0.3638 l -0.203951,0.74415 c -0.06615,0.23151 -0.07166,0.29214 -0.07166,0.34175 0,0.17087 0.09922,0.24253 0.214972,0.24253 0.214976,0 0.330729,-0.0882 0.63941,-0.51814 z m 0,0"
         style="fill:#000000;fill-opacity:1;fill-rule:nonzero;stroke:none;stroke-width:0.35277778"
         inkscape:connector-curvature="0" />
      <path
         id="path3773"
         d="m 21.45793,136.67579 h -0.06615 c -0.03859,0.0661 -0.07166,0.0827 -0.137806,0.0827 -0.03858,0 -0.07717,-0.005 -0.165364,-0.033 -0.115754,-0.0276 -0.176389,-0.0441 -0.25907,-0.0441 -0.336243,0 -0.551215,0.19292 -0.551215,0.49609 0,0.14883 0.08819,0.35278 0.286632,0.60083 0.181899,0.226 0.259069,0.38034 0.259069,0.52916 0,0.22049 -0.132291,0.35278 -0.352777,0.35278 -0.237021,0 -0.391361,-0.18741 -0.457507,-0.62287 h -0.07166 l -0.0937,0.7276 h 0.07717 c 0.02755,-0.0717 0.08268,-0.0992 0.132292,-0.0992 0.04961,0 0.115753,0.006 0.198437,0.0441 0.110243,0.0386 0.176389,0.0441 0.253559,0.0441 0.380337,0 0.661459,-0.23151 0.661459,-0.61185 0,-0.1819 -0.08268,-0.35829 -0.314195,-0.62287 -0.176389,-0.21498 -0.248045,-0.34727 -0.248045,-0.46854 0,-0.17087 0.110243,-0.26458 0.275608,-0.26458 0.220486,0 0.358288,0.15434 0.407899,0.53468 h 0.07166 z m 0,0"
         style="fill:#000000;fill-opacity:1;fill-rule:nonzero;stroke:none;stroke-width:0.35277778"
         inkscape:connector-curvature="0" />
      <path
         id="path3775"
         d="m 25.487312,137.69554 v -0.30317 h -1.196136 v -1.19614 h -0.30317 v 1.19614 h -1.196135 v 0.30317 h 1.196135 v 1.19613 h 0.30317 v -1.19613 z m 0,0"
         style="fill:#000000;fill-opacity:1;fill-rule:nonzero;stroke:none;stroke-width:0.35277778"
         inkscape:connector-curvature="0" />
      <path
         id="path3777"
         d="m 28.866263,137.32622 c 0,-0.4079 -0.275608,-0.64492 -0.644924,-0.64492 -0.187413,0 -0.369312,0.0441 -0.551215,0.1378 -0.479555,0.25908 -0.826823,0.78273 -0.826823,1.29536 0,0.40239 0.248049,0.63941 0.677997,0.63941 0.303166,0 0.595312,-0.11576 0.859896,-0.38034 0.303166,-0.29766 0.485069,-0.70004 0.485069,-1.04731 z m -0.38034,-0.11575 c 0,0.34726 -0.132292,0.77721 -0.341754,1.06936 -0.181899,0.24804 -0.352777,0.38033 -0.556725,0.38033 -0.214976,0 -0.358292,-0.14331 -0.358292,-0.41892 0,-0.3638 0.132292,-0.72209 0.341753,-1.04731 0.181903,-0.27561 0.385851,-0.41341 0.584289,-0.41341 0.198437,0 0.330729,0.14883 0.330729,0.42995 z m 0,0"
         style="fill:#000000;fill-opacity:1;fill-rule:nonzero;stroke:none;stroke-width:0.35277778"
         inkscape:connector-curvature="0" />
      <path
         id="path3779"
         d="m 32.245211,138.2247 -0.07166,-0.0551 -0.09371,0.11576 c -0.137802,0.17087 -0.220486,0.24253 -0.297656,0.24253 -0.03858,0 -0.05512,-0.0221 -0.05512,-0.0717 0,-0.0165 0.01655,-0.0992 0.0441,-0.20395 l 0.314194,-1.15203 c 0,-0.0221 0.01101,-0.0992 0.01101,-0.1323 0,-0.15985 -0.09371,-0.28663 -0.264583,-0.28663 -0.09371,0 -0.181903,0.0221 -0.292146,0.0937 -0.220486,0.14331 -0.407899,0.36931 -0.733115,0.87643 0.126778,-0.35278 0.187413,-0.60634 0.187413,-0.69453 0,-0.16537 -0.09371,-0.27561 -0.275607,-0.27561 -0.281122,0 -0.600827,0.30317 -1.008726,0.97014 l 0.264583,-0.95911 -0.01655,-0.011 -0.738628,0.14332 v 0.0717 h 0.110243 c 0.126777,0 0.192923,0.0331 0.192923,0.0992 0,0.0551 -0.07166,0.44097 -0.253559,1.04731 l -0.198437,0.66697 h 0.341753 c 0.220486,-0.7276 0.286632,-0.89297 0.440972,-1.12999 0.259073,-0.39136 0.529167,-0.66146 0.683507,-0.66146 0.06064,0 0.104733,0.0441 0.104733,0.11576 0,0.0606 -0.110243,0.5457 -0.314194,1.24574 l -0.126778,0.42995 h 0.347264 c 0.176389,-0.71107 0.270097,-0.93155 0.496093,-1.25126 0.226001,-0.3197 0.463021,-0.54019 0.600827,-0.54019 0.04961,0 0.08819,0.0441 0.08819,0.0992 0,0.0221 -0.0055,0.0827 -0.02755,0.17639 l -0.270093,1.0418 c -0.0441,0.17639 -0.06064,0.25907 -0.06064,0.30316 0,0.13229 0.06615,0.20395 0.187413,0.20395 0.214976,0 0.413414,-0.14883 0.661459,-0.49058 z m 0,0"
         style="fill:#000000;fill-opacity:1;fill-rule:nonzero;stroke:none;stroke-width:0.35277778"
         inkscape:connector-curvature="0" />
      <path
         id="path3781"
         d="m 33.965003,138.20266 c -0.330729,0.27009 -0.474045,0.34726 -0.672483,0.34726 -0.259069,0 -0.429948,-0.16536 -0.429948,-0.41892 0,-0.0661 0,-0.18742 0.04961,-0.28112 0.815799,-0.10473 1.300868,-0.46302 1.300868,-0.85439 0,-0.19292 -0.132291,-0.31419 -0.374826,-0.31419 -0.689021,0 -1.372528,0.73312 -1.372528,1.44419 0,0.38033 0.248049,0.62838 0.617361,0.62838 0.380341,0 0.672483,-0.17088 0.937066,-0.49609 z m -0.948091,-0.65595 c 0.159855,-0.4079 0.468535,-0.76068 0.733119,-0.76068 0.126777,0 0.15985,0.0717 0.15985,0.1819 0,0.13781 -0.08819,0.30317 -0.23151,0.44098 -0.170875,0.15985 -0.341754,0.24253 -0.738629,0.34175 z m 0,0"
         style="fill:#000000;fill-opacity:1;fill-rule:nonzero;stroke:none;stroke-width:0.35277778"
         inkscape:connector-curvature="0" />
      <path
         id="path3783"
         d="m 36.517131,137.02306 v -0.17639 h -0.275607 c -0.01655,0 -0.03859,-0.011 -0.07166,-0.0386 -0.126778,-0.0827 -0.275608,-0.12678 -0.451997,-0.12678 -0.463021,0 -0.920527,0.31419 -0.920527,0.78273 0,0.24253 0.104729,0.4079 0.363802,0.49609 -0.248049,0.11575 -0.352778,0.25356 -0.352778,0.38585 0,0.0606 0.03858,0.12678 0.121267,0.1819 -0.451996,0.2701 -0.53468,0.39137 -0.53468,0.62839 0,0.32522 0.297656,0.49058 0.766191,0.49058 0.606336,0 0.959114,-0.29215 0.959114,-0.68902 0,-0.27561 -0.209462,-0.47956 -0.650434,-0.58429 -0.198437,-0.0496 -0.325219,-0.11024 -0.325219,-0.19292 0,-0.0937 0.0882,-0.18742 0.165365,-0.18742 0.01101,0 0.01655,0 0.03306,0.006 0.03859,0.011 0.09371,0.011 0.143316,0.011 0.424438,0 0.848872,-0.3638 0.848872,-0.74965 0,-0.0772 0,-0.15434 -0.0441,-0.23702 z m -0.545705,0.0827 c 0,0.19292 -0.06063,0.38585 -0.15434,0.54019 -0.110243,0.18741 -0.23151,0.27009 -0.385851,0.27009 -0.176389,0 -0.275607,-0.12678 -0.275607,-0.34726 0,-0.452 0.275607,-0.78824 0.556729,-0.78824 0.170875,0 0.259069,0.0827 0.259069,0.32522 z m -0.126777,2.01193 c 0,0.23151 -0.248049,0.42995 -0.617362,0.42995 -0.363802,0 -0.584288,-0.14883 -0.584288,-0.46853 0,-0.10473 0.02755,-0.17639 0.0937,-0.26459 0.06615,-0.0827 0.259073,-0.23702 0.297656,-0.23702 0.04961,0.0165 0.09922,0.0331 0.154341,0.0496 0.490583,0.14883 0.655948,0.28112 0.655948,0.49058 z m 0,0"
         style="fill:#000000;fill-opacity:1;fill-rule:nonzero;stroke:none;stroke-width:0.35277778"
         inkscape:connector-curvature="0" />
      <path
         id="path3785"
         d="m 38.710968,138.19714 -0.121267,0.13229 c -0.137806,0.14883 -0.198438,0.18742 -0.237025,0.18742 -0.03858,0 -0.06615,-0.0276 -0.06615,-0.0606 0,-0.0937 0.192927,-0.88194 0.407899,-1.66467 0.01101,-0.0441 0.01655,-0.0551 0.02755,-0.0937 l -0.03306,-0.0166 -0.281121,0.0331 -0.01101,0.011 -0.04961,0.22049 c -0.03859,-0.16537 -0.170879,-0.26458 -0.369316,-0.26458 -0.611848,0 -1.311893,0.83233 -1.311893,1.5434 0,0.34726 0.203952,0.52917 0.457511,0.52917 0.325215,0 0.589798,-0.19844 0.931552,-0.71658 -0.0937,0.37482 -0.104729,0.40789 -0.104729,0.52365 0,0.13229 0.05512,0.18741 0.181899,0.18741 0.187413,0 0.297656,-0.0827 0.63941,-0.5016 z m -0.446486,-1.14653 c 0,0.32522 -0.137802,0.71658 -0.352778,1.03078 -0.137802,0.19844 -0.352778,0.44648 -0.584288,0.44648 -0.165365,0 -0.275608,-0.0827 -0.275608,-0.33624 0,-0.29214 0.159854,-0.70004 0.352778,-0.98668 0.192927,-0.28111 0.396875,-0.42443 0.600826,-0.42443 0.159851,0 0.25907,0.11024 0.25907,0.27009 z m 0,0"
         style="fill:#000000;fill-opacity:1;fill-rule:nonzero;stroke:none;stroke-width:0.35277778"
         inkscape:connector-curvature="0" />
      <path
         id="path3787"
         d="m 40.518954,139.0405 c -0.02205,0.0276 -0.0441,0.0551 -0.06615,0.0827 -0.09371,0.11576 -0.14883,0.16537 -0.192927,0.16537 -0.03858,0 -0.04961,-0.0275 -0.04961,-0.0551 0,-0.0276 0.01101,-0.0827 0.0441,-0.19293 l 0.176389,-0.64492 c 0.01655,-0.0661 0.03305,-0.1378 0.03305,-0.19292 0,-0.11576 -0.07166,-0.19293 -0.209462,-0.19293 -0.203951,0 -0.413413,0.18741 -0.733118,0.70004 l 0.214976,-0.69453 -0.01655,-0.006 c -0.165365,0.0331 -0.253559,0.0496 -0.512629,0.0992 v 0.0496 c 0.159851,0.006 0.209462,0.0221 0.209462,0.0882 0,0.0165 -0.0055,0.0331 -0.01101,0.0496 l -0.30317,1.11897 h 0.237024 c 0.148827,-0.50712 0.176389,-0.57878 0.319705,-0.79375 0.198438,-0.29215 0.341754,-0.452 0.468531,-0.452 0.04961,0 0.07717,0.0386 0.07717,0.0937 0,0.0386 -0.01655,0.15434 -0.0441,0.25356 l -0.137802,0.51263 c -0.0441,0.16536 -0.05512,0.20395 -0.05512,0.23702 0,0.12127 0.07166,0.17088 0.148826,0.17088 0.15434,0 0.231511,-0.0606 0.446486,-0.35829 z m 0,0"
         style="fill:#000000;fill-opacity:1;fill-rule:nonzero;stroke:none;stroke-width:0.35277778"
         inkscape:connector-curvature="0" />
      <path
         id="path3789"
         d="m 42.514353,137.34276 -0.832336,-1.67569 h -0.270094 l -0.832337,1.67569 h 0.314195 l 0.655944,-1.32843 0.655948,1.32843 z m 0,0"
         style="fill:#000000;fill-opacity:1;fill-rule:nonzero;stroke:none;stroke-width:0.35277778"
         inkscape:connector-curvature="0" />
      <path
         id="path3791"
         d="m 44.790871,138.07587 -0.06063,-0.0276 c -0.15434,0.25907 -0.248049,0.30868 -0.440972,0.30868 h -1.074872 l 0.755167,-0.81029 c 0.41341,-0.42995 0.589798,-0.7717 0.589798,-1.13551 0,-0.45199 -0.330729,-0.80477 -0.848871,-0.80477 -0.56224,0 -0.859896,0.37483 -0.953601,0.90951 l 0.09371,0.0221 c 0.187413,-0.44649 0.347267,-0.59532 0.677997,-0.59532 0.38585,0 0.633895,0.23151 0.633895,0.64492 0,0.39137 -0.165364,0.73863 -0.595312,1.19614 l -0.815799,0.86541 v 0.0551 h 1.791452 z m 0,0"
         style="fill:#000000;fill-opacity:1;fill-rule:nonzero;stroke:none;stroke-width:0.35277778"
         inkscape:connector-curvature="0" />
      <path
         id="path3793"
         d="m -30.791766,117.3612 h 82.90278 v 33.86667 h -82.90278 z m 0,0"
         style="fill:none;stroke:#000000;stroke-width:0.31443119;stroke-linecap:butt;stroke-linejoin:miter;stroke-miterlimit:2;stroke-opacity:1"
         inkscape:connector-curvature="0" />
      <path
         id="path3795"
         d="m 80.333232,127.23898 h 12.347222 v 14.11111 H 80.333232 Z m 0,0"
         style="fill:#ffffff;fill-opacity:1;fill-rule:nonzero;stroke:none;stroke-width:0.35277778"
         inkscape:connector-curvature="0" />
      <path
         id="path3797"
         d="m 82.743423,129.17788 h 7.525466 c 0.454753,0 0.822689,0.42168 0.822689,0.9412 v 4.1162 c 0,0.51953 -0.367936,0.93983 -0.822689,0.93983 h -7.525466 c -0.454753,0 -0.824067,-0.4203 -0.824067,-0.93983 v -4.1162 c 0,-0.51952 0.369314,-0.9412 0.824067,-0.9412 z m 0,0"
         style="fill:none;stroke:#000000;stroke-width:0.4586111;stroke-linecap:round;stroke-linejoin:round;stroke-miterlimit:10;stroke-opacity:1"
         inkscape:connector-curvature="0" />
      <path
         id="path3799"
         d="m 80.333234,127.23898 h 12.347222 v 14.11111 H 80.333234 Z m 0,0"
         style="fill:none;stroke:#000000;stroke-width:0.31443119;stroke-linecap:butt;stroke-linejoin:miter;stroke-miterlimit:2;stroke-opacity:1"
         inkscape:connector-curvature="0" />
      <path
         id="path3801"
         d="m -85.472324,129.00287 h 10.583333 v 10.58333 h -10.583333 z m 0,0"
         style="fill:#ffffff;fill-opacity:1;fill-rule:nonzero;stroke:none;stroke-width:0.35277778"
         inkscape:connector-curvature="0" />
      <path
         id="path3803"
         d="m -84.238978,137.99733 h 4.233334 v -7.05556 h 4.233333"
         style="fill:none;stroke:#000000;stroke-width:0.35277778;stroke-linecap:round;stroke-linejoin:round;stroke-miterlimit:10;stroke-opacity:1"
         inkscape:connector-curvature="0" />
      <path
         id="path3805"
         d="m -85.472322,129.00287 h 10.583333 v 10.58333 h -10.583333 z m 0,0"
         style="fill:none;stroke:#000000;stroke-width:0.31443119;stroke-linecap:butt;stroke-linejoin:miter;stroke-miterlimit:2;stroke-opacity:1"
         inkscape:connector-curvature="0" />
      <path
         id="path3807"
         d="m 80.333232,134.29454 -2.822222,-1.41111 v 2.82222 z m 0,0"
         style="fill:#000000;fill-opacity:1;fill-rule:nonzero;stroke:none;stroke-width:0.35277778"
         inkscape:connector-curvature="0" />
      <path
         id="path3809"
         d="M 52.182672,134.45439 H 77.670866"
         style="fill:none;stroke:#000000;stroke-width:0.26458335;stroke-linecap:butt;stroke-linejoin:miter;stroke-miterlimit:2;stroke-opacity:1"
         inkscape:connector-curvature="0" />
      <path
         id="path3811"
         d="m -30.791769,134.29454 -2.822222,-1.41111 v 2.82222 z m 0,0"
         style="fill:#000000;fill-opacity:1;fill-rule:nonzero;stroke:none;stroke-width:0.35277778"
         inkscape:connector-curvature="0" />
      <path
         id="path3813"
         d="m -74.817329,134.45439 h 41.363195"
         style="fill:none;stroke:#000000;stroke-width:0.26458335;stroke-linecap:butt;stroke-linejoin:miter;stroke-miterlimit:2;stroke-opacity:1"
         inkscape:connector-curvature="0" />
    </g>
  </g>
</svg>
